<svg width="1920" height="314" viewBox="0 0 1920 314" fill="none" xmlns="http://www.w3.org/2000/svg">
<g clip-path="url(#clip0_125_110)">
<rect width="1920" height="314" fill="url(#paint0_linear_125_110)"/>
<g style="mix-blend-mode:screen" opacity="0.25">
<g style="mix-blend-mode:overlay">
<path fill-rule="evenodd" clip-rule="evenodd" d="M-93.5703 150.026L-3.78832 136.361C85.9937 122.697 265.558 95.3677 445.122 113.587C624.686 131.806 804.25 195.574 983.814 209.239C1163.38 222.903 1342.94 186.464 1522.51 181.91C1702.07 177.355 1881.63 204.684 1971.42 218.348L2061.2 232.013V314H1971.42C1881.63 314 1702.07 314 1522.51 314C1342.94 314 1163.38 314 983.814 314C804.25 314 624.686 314 445.122 314C265.558 314 85.9937 314 -3.78832 314H-93.5703V150.026Z" fill="#262729"/>
<path fill-rule="evenodd" clip-rule="evenodd" d="M-93.5703 150.026L-3.78832 136.361C85.9937 122.697 265.558 95.3677 445.122 113.587C624.686 131.806 804.25 195.574 983.814 209.239C1163.38 222.903 1342.94 186.464 1522.51 181.91C1702.07 177.355 1881.63 204.684 1971.42 218.348L2061.2 232.013V314H1971.42C1881.63 314 1702.07 314 1522.51 314C1342.94 314 1163.38 314 983.814 314C804.25 314 624.686 314 445.122 314C265.558 314 85.9937 314 -3.78832 314H-93.5703V150.026Z" stroke="black"/>
</g>
<g style="mix-blend-mode:overlay" opacity="0.25">
<path fill-rule="evenodd" clip-rule="evenodd" d="M-10.4688 90.0522L80.4674 71.3899C171.404 52.7276 353.276 15.403 535.148 40.286C717.021 65.1691 898.893 152.26 1080.77 170.922C1262.64 189.585 1444.51 139.818 1626.38 133.598C1808.26 127.377 1990.13 164.701 2081.06 183.364L2172 202.026V314H2081.06C1990.13 314 1808.26 314 1626.38 314C1444.51 314 1262.64 314 1080.77 314C898.893 314 717.021 314 535.148 314C353.276 314 171.404 314 80.4674 314H-10.4688V90.0522Z" fill="#4F5052"/>
<path fill-rule="evenodd" clip-rule="evenodd" d="M-10.4688 90.0522L80.4674 71.3899C171.404 52.7276 353.276 15.403 535.148 40.286C717.021 65.1691 898.893 152.26 1080.77 170.922C1262.64 189.585 1444.51 139.818 1626.38 133.598C1808.26 127.377 1990.13 164.701 2081.06 183.364L2172 202.026V314H2081.06C1990.13 314 1808.26 314 1626.38 314C1444.51 314 1262.64 314 1080.77 314C898.893 314 717.021 314 535.148 314C353.276 314 171.404 314 80.4674 314H-10.4688V90.0522Z" stroke="black"/>
</g>
<g style="mix-blend-mode:overlay" opacity="0.3">
<path fill-rule="evenodd" clip-rule="evenodd" d="M-436 90.0522L-337.844 71.3899C-239.688 52.7276 -43.3757 15.403 152.936 40.286C349.249 65.1691 545.561 152.26 741.873 170.922C938.185 189.585 1134.5 139.818 1330.81 133.598C1527.12 127.377 1723.43 164.701 1821.59 183.364L1919.75 202.026V314H1821.59C1723.43 314 1527.12 314 1330.81 314C1134.5 314 938.185 314 741.873 314C545.561 314 349.249 314 152.936 314C-43.3757 314 -239.688 314 -337.844 314H-436V90.0522Z" fill="#393B40"/>
<path fill-rule="evenodd" clip-rule="evenodd" d="M-436 90.0522L-337.844 71.3899C-239.688 52.7276 -43.3757 15.403 152.936 40.286C349.249 65.1691 545.561 152.26 741.873 170.922C938.185 189.585 1134.5 139.818 1330.81 133.598C1527.12 127.377 1723.43 164.701 1821.59 183.364L1919.75 202.026V314H1821.59C1723.43 314 1527.12 314 1330.81 314C1134.5 314 938.185 314 741.873 314C545.561 314 349.249 314 152.936 314C-43.3757 314 -239.688 314 -337.844 314H-436V90.0522Z" stroke="black"/>
</g>
</g>
<g filter="url(#filter0_d_125_110)">
<path d="M1298.78 158.172C1305.19 158.172 1310.59 157.234 1315 155.359C1319.44 153.453 1322.81 150.75 1325.12 147.25C1327.44 143.719 1328.59 139.484 1328.59 134.547V101.078H1307.83V134.406C1307.83 137.188 1307.03 139.328 1305.44 140.828C1303.88 142.328 1301.56 143.078 1298.5 143.078C1296.56 143.078 1294.86 142.75 1293.39 142.094C1291.92 141.406 1290.77 140.406 1289.92 139.094C1289.08 137.781 1288.62 136.172 1288.56 134.266V134.172H1268.64V134.312C1268.67 139.344 1269.94 143.641 1272.44 147.203C1274.97 150.734 1278.48 153.453 1282.98 155.359C1287.52 157.234 1292.78 158.172 1298.78 158.172ZM1370.78 158.172C1377.56 158.172 1383.34 157.391 1388.12 155.828C1392.91 154.234 1396.56 151.984 1399.09 149.078C1401.66 146.172 1402.94 142.688 1402.94 138.625V138.578C1402.94 133.703 1401.14 129.938 1397.55 127.281C1393.98 124.625 1388.56 122.969 1381.28 122.312L1366 121.234C1363.22 120.953 1361.23 120.531 1360.05 119.969C1358.86 119.406 1358.27 118.578 1358.27 117.484V117.438C1358.27 116.594 1358.66 115.875 1359.44 115.281C1360.25 114.656 1361.45 114.188 1363.05 113.875C1364.67 113.562 1366.69 113.406 1369.09 113.406C1372.75 113.406 1375.62 113.797 1377.72 114.578C1379.84 115.328 1381.09 116.453 1381.47 117.953L1381.61 118.281H1401.39L1401.25 117.438C1400.66 113.719 1399.02 110.562 1396.33 107.969C1393.67 105.344 1390.03 103.344 1385.41 101.969C1380.78 100.594 1375.25 99.9062 1368.81 99.9062C1362.34 99.9062 1356.78 100.656 1352.12 102.156C1347.5 103.625 1343.92 105.766 1341.39 108.578C1338.89 111.391 1337.64 114.766 1337.64 118.703V118.75C1337.64 123.656 1339.5 127.484 1343.22 130.234C1346.97 132.953 1352.55 134.641 1359.95 135.297L1374.95 136.328C1377.7 136.609 1379.62 137.031 1380.72 137.594C1381.81 138.156 1382.36 139 1382.36 140.125V140.172C1382.36 141.078 1381.91 141.875 1381 142.562C1380.09 143.219 1378.8 143.734 1377.11 144.109C1375.42 144.484 1373.41 144.672 1371.06 144.672C1368.12 144.672 1365.59 144.484 1363.47 144.109C1361.38 143.703 1359.7 143.125 1358.45 142.375C1357.23 141.594 1356.48 140.656 1356.2 139.562L1356.11 139.328H1336.33L1336.38 139.844C1336.97 143.781 1338.69 147.125 1341.53 149.875C1344.41 152.594 1348.3 154.656 1353.2 156.062C1358.11 157.469 1363.97 158.172 1370.78 158.172Z" fill="#FEB444"/>
<path d="M1433.5 157H1485.53V142.141H1454.27V101.078H1433.5V157ZM1492.47 157H1513.23V101.078H1492.47V157ZM1532.69 157H1564.8C1569.52 157 1573.55 156.375 1576.89 155.125C1580.27 153.875 1582.84 152.078 1584.62 149.734C1586.44 147.359 1587.34 144.516 1587.34 141.203V141.109C1587.34 138.609 1586.72 136.406 1585.47 134.5C1584.22 132.562 1582.44 131 1580.12 129.812C1577.84 128.625 1575.12 127.875 1571.97 127.562V127.281C1575.84 126.688 1578.92 125.328 1581.2 123.203C1583.48 121.047 1584.62 118.25 1584.62 114.812V114.766C1584.62 110.422 1582.84 107.062 1579.28 104.688C1575.75 102.281 1570.7 101.078 1564.14 101.078H1532.69V114.156H1558.19C1560.09 114.156 1561.58 114.547 1562.64 115.328C1563.7 116.078 1564.23 117.156 1564.23 118.562V118.609C1564.23 120.078 1563.67 121.219 1562.55 122.031C1561.42 122.812 1559.8 123.203 1557.67 123.203H1532.69V134.312H1559.31C1561.56 134.312 1563.28 134.719 1564.47 135.531C1565.69 136.344 1566.3 137.531 1566.3 139.094V139.141C1566.3 140.734 1565.7 141.938 1564.52 142.75C1563.36 143.562 1561.7 143.969 1559.55 143.969H1532.69V157ZM1522.28 157H1542.77V101.078H1522.28V157ZM1593.72 157H1614.48V139.891H1624.89C1625.05 139.891 1625.2 139.891 1625.36 139.891C1625.52 139.891 1625.66 139.891 1625.78 139.891L1637.12 157H1660.33L1645.89 136.469C1649.73 135.156 1652.69 133.078 1654.75 130.234C1656.81 127.359 1657.84 123.953 1657.84 120.016V119.922C1657.84 113.891 1655.66 109.25 1651.28 106C1646.94 102.719 1640.42 101.078 1631.73 101.078H1593.72V157ZM1614.48 127.094V114.812H1629.62C1631.91 114.812 1633.72 115.359 1635.06 116.453C1636.44 117.547 1637.12 119.031 1637.12 120.906V121C1637.12 122.906 1636.45 124.406 1635.11 125.5C1633.8 126.562 1631.98 127.094 1629.67 127.094H1614.48ZM1662.81 157H1684.66L1701.25 115.844H1708.23V101.078H1687.84L1662.81 157ZM1677.86 146.5H1724.27L1719.02 133.75H1683.11L1677.86 146.5ZM1718.12 157H1739.97L1714.98 101.078H1701.58V115.844L1718.12 157ZM1745.69 157H1766.45V139.891H1776.86C1777.02 139.891 1777.17 139.891 1777.33 139.891C1777.48 139.891 1777.62 139.891 1777.75 139.891L1789.09 157H1812.3L1797.86 136.469C1801.7 135.156 1804.66 133.078 1806.72 130.234C1808.78 127.359 1809.81 123.953 1809.81 120.016V119.922C1809.81 113.891 1807.62 109.25 1803.25 106C1798.91 102.719 1792.39 101.078 1783.7 101.078H1745.69V157ZM1766.45 127.094V114.812H1781.59C1783.88 114.812 1785.69 115.359 1787.03 116.453C1788.41 117.547 1789.09 119.031 1789.09 120.906V121C1789.09 122.906 1788.42 124.406 1787.08 125.5C1785.77 126.562 1783.95 127.094 1781.64 127.094H1766.45ZM1839.44 157H1860.11V139L1886.78 101.078H1864.23L1849.94 123.203H1849.61L1835.31 101.078H1812.72L1839.44 139V157ZM788.25 233H799.281L803.875 206.906H816.688L818.156 198.688H805.062L805.531 195.969C805.875 193.938 807.094 192.875 809.125 192.875H819.156L820.469 185.438H810.062C800 185.438 796.125 188.281 794.625 196.812L794.312 198.688H785.062L783.594 206.906H792.844L788.25 233ZM836.25 233.812C845.312 233.812 851.938 228.562 853.5 219.75L854.406 214.594C854.625 213.438 854.688 212.344 854.688 211.281C854.688 203.625 848.188 197.406 838.688 197.406C829.688 197.406 823.094 202.625 821.5 211.438L820.562 216.594C820.344 217.75 820.312 218.812 820.312 219.875C820.312 227.562 826.781 233.812 836.25 233.812ZM838.562 205.75C841.688 205.75 843.969 208.156 843.969 211.5C843.969 212.125 843.906 212.969 843.781 213.688L842.906 218.594C842.094 223.188 839.969 225.469 836.438 225.469C833.438 225.469 831.031 223.094 831.031 219.75C831.031 219.125 831.094 218.25 831.219 217.531L832.094 212.625C832.906 208.031 835 205.75 838.562 205.75ZM876.562 217.312C877.594 211.344 881.594 208.188 888.156 208.188C891.281 208.188 893.812 208.812 895.844 210.125L897.906 199.031C896.156 197.906 894 197.281 891.75 197.281C886.125 197.281 882.531 200.375 880.344 207.156H878.5L880.062 198.219H862.531L861.219 205.719H868.125L864.656 225.5H858.438L857.031 233H883.438L884.844 225.5H875.156L876.562 217.312ZM1299.72 216.844C1299.59 217.625 1299.56 218.312 1299.56 219.25C1299.56 228.188 1306.5 233.906 1316.5 233.906C1325.81 233.906 1332.41 228.375 1334.12 218.875L1339.75 187.906H1328.28L1323.09 217.031C1322.25 221.812 1320.06 224.25 1316.75 224.25C1313.69 224.25 1311.06 222.312 1311.06 218.438C1311.06 217.812 1311.16 217.062 1311.31 216.219L1316.34 187.906H1304.88L1299.72 216.844ZM1342.81 209C1342.81 213.719 1345.66 216.875 1351.78 218.875L1356.16 220.312C1359 221.25 1360.09 222.094 1360.09 223.344C1360.09 225.094 1358.59 225.969 1355.69 225.969C1352.69 225.969 1350.69 224.844 1350.69 223.156V222.812H1339.91C1339.84 223.312 1339.81 223.625 1339.81 224.219C1339.81 229.781 1346.25 233.781 1355.22 233.781C1364.72 233.781 1371.44 228.969 1371.44 222.188C1371.44 217.312 1368.62 214.375 1362.06 212.375L1357.25 210.906C1354.94 210.188 1353.62 209.031 1353.62 207.688C1353.62 206.125 1355.31 205.094 1357.94 205.094C1360.56 205.094 1362.34 206.25 1362.34 207.969V208.312H1372.66C1372.75 207.844 1372.78 207.281 1372.78 206.438C1372.78 201.156 1366.78 197.281 1358.62 197.281C1349.03 197.281 1342.81 201.875 1342.81 209ZM1411.62 222.75H1400.72C1399.81 224.969 1398.22 225.969 1395.59 225.969C1392.5 225.969 1390.53 223.969 1390.53 220.812C1390.53 220.281 1390.69 219.125 1390.94 218.062H1412.56L1413.25 214.188C1413.5 212.906 1413.62 211.375 1413.62 209.75C1413.62 202.625 1407.34 197.406 1398.81 197.406C1390 197.406 1383.19 202.812 1381.5 211.125L1380.72 215C1380.34 216.906 1380.19 218.375 1380.19 220.25C1380.19 228.562 1385.97 233.812 1395.06 233.812C1403.97 233.812 1410.31 229.562 1411.62 222.75ZM1398.53 205.188C1401.47 205.188 1403.34 206.875 1403.34 209.5C1403.34 210.219 1403.25 211.188 1403.12 211.719H1392.03C1392.09 211.344 1392.19 210.969 1392.28 210.625C1393.25 207.062 1395.38 205.188 1398.53 205.188ZM1435.62 217.312C1436.66 211.344 1440.66 208.188 1447.22 208.188C1450.34 208.188 1452.88 208.812 1454.91 210.125L1456.97 199.031C1455.22 197.906 1453.06 197.281 1450.81 197.281C1445.19 197.281 1441.59 200.375 1439.41 207.156H1437.56L1439.12 198.219H1421.59L1420.28 205.719H1427.19L1423.72 225.5H1417.5L1416.09 233H1442.5L1443.91 225.5H1434.22L1435.62 217.312ZM1520.69 191.938C1524.97 191.938 1527.66 189.625 1527.66 185.906C1527.66 182.188 1524.97 179.875 1520.69 179.875C1516.41 179.875 1513.72 182.188 1513.72 185.906C1513.72 189.625 1516.41 191.938 1520.69 191.938ZM1527.69 233L1529.16 224.75H1519.38L1524.03 198.219H1503.66L1502.22 206.469H1511.94L1508.72 224.75H1498.09L1496.62 233H1527.69ZM1535.22 233H1546.25L1549.84 212.625C1550.56 208.469 1553.06 206.438 1556.12 206.438C1559.12 206.438 1560.81 208.5 1560.81 211C1560.81 211.875 1560.75 212.594 1560.62 213.375L1557.16 233H1568.22L1571.97 211.781C1572.19 210.625 1572.31 209.562 1572.31 208C1572.31 201.75 1568.56 197.406 1561.81 197.406C1556.94 197.406 1553.44 200.125 1551.69 203.875H1551.09L1552.09 198.219H1541.34L1535.22 233ZM1591.06 187.906L1589.19 198.688H1580.25L1578.78 206.906H1587.72L1585.12 221.625C1584.88 223 1584.75 224.25 1584.75 225.344C1584.75 230.438 1587.97 233 1594.38 233H1605.41L1606.84 224.906H1598.88C1597.03 224.906 1596.06 224.062 1596.06 222.5C1596.06 222.344 1596.06 222.219 1596.12 221.812L1598.75 206.906H1610.62L1612.09 198.688H1599.94L1601.81 187.906H1591.06ZM1649 222.75H1638.09C1637.19 224.969 1635.59 225.969 1632.97 225.969C1629.88 225.969 1627.91 223.969 1627.91 220.812C1627.91 220.281 1628.06 219.125 1628.31 218.062H1649.94L1650.62 214.188C1650.88 212.906 1651 211.375 1651 209.75C1651 202.625 1644.72 197.406 1636.19 197.406C1627.38 197.406 1620.56 202.812 1618.88 211.125L1618.09 215C1617.72 216.906 1617.56 218.375 1617.56 220.25C1617.56 228.562 1623.34 233.812 1632.44 233.812C1641.34 233.812 1647.69 229.562 1649 222.75ZM1635.91 205.188C1638.84 205.188 1640.72 206.875 1640.72 209.5C1640.72 210.219 1640.62 211.188 1640.5 211.719H1629.41C1629.47 211.344 1629.56 210.969 1629.66 210.625C1630.62 207.062 1632.75 205.188 1635.91 205.188ZM1673 217.312C1674.03 211.344 1678.03 208.188 1684.59 208.188C1687.72 208.188 1690.25 208.812 1692.28 210.125L1694.34 199.031C1692.59 197.906 1690.44 197.281 1688.19 197.281C1682.56 197.281 1678.97 200.375 1676.78 207.156H1674.94L1676.5 198.219H1658.97L1657.66 205.719H1664.56L1661.09 225.5H1654.88L1653.47 233H1679.88L1681.28 225.5H1671.59L1673 217.312ZM1703.38 233H1714.41L1719 206.906H1731.81L1733.28 198.688H1720.19L1720.66 195.969C1721 193.938 1722.22 192.875 1724.25 192.875H1734.28L1735.59 185.438H1725.19C1715.12 185.438 1711.25 188.281 1709.75 196.812L1709.44 198.688H1700.19L1698.72 206.906H1707.97L1703.38 233ZM1745.28 233.531C1749.47 233.531 1752.56 231.844 1754.16 228.688H1755.09L1754.34 233H1764.78L1768.66 211.094C1768.81 210.125 1768.91 209.031 1768.91 208.188C1768.91 201.625 1763.44 197.406 1754.97 197.406C1746.69 197.406 1739.75 202.031 1738.59 208.344H1749.31C1750.16 206.594 1751.88 205.531 1753.97 205.531C1756.47 205.531 1758.12 206.844 1758.12 208.781C1758.12 208.906 1758.09 209.281 1758.06 209.5L1757.66 211.75L1750.47 212C1740.22 212.344 1734.78 216.5 1734.78 223.938C1734.78 229.469 1739.22 233.531 1745.28 233.531ZM1749.72 225.375C1747.41 225.375 1745.72 224.125 1745.72 222.375C1745.72 219.875 1747.81 218.375 1751.47 218.25L1756.53 218.062L1756.25 219.688C1755.66 223.125 1753.06 225.375 1749.72 225.375ZM1809.66 211.094C1809.75 210.25 1809.78 209.375 1809.78 208.719C1809.78 202 1803.53 197.25 1794.69 197.25C1785.53 197.25 1778.66 202.562 1777.12 210.844L1776.34 215C1776 216.844 1775.81 218.938 1775.81 220.875C1775.81 228.688 1781.72 233.812 1790.75 233.812C1799.78 233.812 1806.5 228.562 1808 220.375H1797.31C1796.22 223.938 1794.59 225.312 1791.5 225.312C1788.41 225.312 1786.72 223.281 1786.72 219.531C1786.72 218.719 1786.91 217.219 1787.16 215.812L1787.72 212.688C1788.53 208.062 1790.72 205.75 1794.25 205.75C1796.97 205.75 1799 207.719 1799 210.344C1799 210.875 1799 210.969 1798.97 211.094H1809.66ZM1846.81 222.75H1835.91C1835 224.969 1833.41 225.969 1830.78 225.969C1827.69 225.969 1825.72 223.969 1825.72 220.812C1825.72 220.281 1825.88 219.125 1826.12 218.062H1847.75L1848.44 214.188C1848.69 212.906 1848.81 211.375 1848.81 209.75C1848.81 202.625 1842.53 197.406 1834 197.406C1825.19 197.406 1818.38 202.812 1816.69 211.125L1815.91 215C1815.53 216.906 1815.38 218.375 1815.38 220.25C1815.38 228.562 1821.16 233.812 1830.25 233.812C1839.16 233.812 1845.5 229.562 1846.81 222.75ZM1833.72 205.188C1836.66 205.188 1838.53 206.875 1838.53 209.5C1838.53 210.219 1838.44 211.188 1838.31 211.719H1827.22C1827.28 211.344 1827.38 210.969 1827.47 210.625C1828.44 207.062 1830.56 205.188 1833.72 205.188ZM1857.12 209C1857.12 213.719 1859.97 216.875 1866.09 218.875L1870.47 220.312C1873.31 221.25 1874.41 222.094 1874.41 223.344C1874.41 225.094 1872.91 225.969 1870 225.969C1867 225.969 1865 224.844 1865 223.156V222.812H1854.22C1854.16 223.312 1854.12 223.625 1854.12 224.219C1854.12 229.781 1860.56 233.781 1869.53 233.781C1879.03 233.781 1885.75 228.969 1885.75 222.188C1885.75 217.312 1882.94 214.375 1876.38 212.375L1871.56 210.906C1869.25 210.188 1867.94 209.031 1867.94 207.688C1867.94 206.125 1869.62 205.094 1872.25 205.094C1874.88 205.094 1876.66 206.25 1876.66 207.969V208.312H1886.97C1887.06 207.844 1887.09 207.281 1887.09 206.438C1887.09 201.156 1881.09 197.281 1872.94 197.281C1863.34 197.281 1857.12 201.875 1857.12 209Z" fill="#A2ABBC"/>
<path d="M942.5 233H963.781C966.844 233 969.458 232.594 971.625 231.781C973.812 230.948 975.49 229.76 976.656 228.219C977.823 226.677 978.406 224.812 978.406 222.625V222.562C978.406 220.917 978 219.458 977.188 218.188C976.375 216.917 975.229 215.896 973.75 215.125C972.271 214.333 970.5 213.833 968.438 213.625V213.438C970.917 213.042 972.885 212.125 974.344 210.688C975.823 209.25 976.562 207.438 976.562 205.25V205.188C976.562 202.354 975.417 200.146 973.125 198.562C970.833 196.958 967.615 196.156 963.469 196.156H942.5V203.938H960.031C961.49 203.938 962.625 204.24 963.438 204.844C964.25 205.427 964.656 206.271 964.656 207.375V207.406C964.656 208.552 964.208 209.438 963.312 210.062C962.417 210.667 961.125 210.969 959.438 210.969H942.5V217.688H960.562C962.375 217.688 963.75 218 964.688 218.625C965.646 219.25 966.125 220.177 966.125 221.406V221.469C966.125 222.698 965.667 223.635 964.75 224.281C963.833 224.906 962.531 225.219 960.844 225.219H942.5V233ZM936.438 233H948.375V196.156H936.438V233ZM1004.38 233.656C1008.73 233.656 1012.51 233.01 1015.72 231.719C1018.95 230.406 1021.45 228.469 1023.22 225.906C1025.01 223.344 1025.91 220.188 1025.91 216.438V196.156H1013.81V216.25C1013.81 218.979 1013.01 221.073 1011.41 222.531C1009.82 223.969 1007.49 224.688 1004.41 224.688C1001.3 224.688 998.948 223.969 997.344 222.531C995.76 221.073 994.969 218.979 994.969 216.25V196.156H982.875V216.438C982.875 220.188 983.76 223.344 985.531 225.906C987.323 228.469 989.833 230.406 993.062 231.719C996.292 233.01 1000.06 233.656 1004.38 233.656ZM1032.19 233H1044.28V196.156H1032.19V233ZM1050.56 233H1084.28V224.219H1062.66V196.156H1050.56V233ZM1089 233H1110.72C1115.59 233 1119.73 232.292 1123.12 230.875C1126.52 229.438 1129.1 227.333 1130.88 224.562C1132.65 221.792 1133.53 218.396 1133.53 214.375V214.312C1133.53 210.417 1132.65 207.115 1130.88 204.406C1129.12 201.698 1126.55 199.646 1123.16 198.25C1119.76 196.854 1115.61 196.156 1110.72 196.156H1089V233ZM1101.09 224.281V204.844H1109.94C1112.44 204.844 1114.52 205.219 1116.19 205.969C1117.85 206.698 1119.1 207.781 1119.94 209.219C1120.79 210.635 1121.22 212.396 1121.22 214.5V214.562C1121.22 216.75 1120.77 218.562 1119.88 220C1119 221.438 1117.72 222.51 1116.03 223.219C1114.36 223.927 1112.33 224.281 1109.94 224.281H1101.09ZM1138.62 233H1150.72V196.156H1138.62V233ZM1157 233H1168.75V211.562H1173.72L1163.38 206.031L1190.22 233H1200.56V196.156H1188.81V217.344H1183.84L1194.22 222.844L1167.34 196.156H1157V233ZM1229.84 233.75C1234.55 233.75 1238.62 233.01 1242.06 231.531C1245.52 230.052 1248.19 227.99 1250.06 225.344C1251.96 222.677 1252.91 219.573 1252.91 216.031V212.844H1230.5V219.438H1241.41L1241.31 219.719C1240.94 220.823 1240.26 221.792 1239.28 222.625C1238.3 223.438 1237.05 224.073 1235.53 224.531C1234.01 224.969 1232.25 225.188 1230.25 225.188C1227.65 225.188 1225.38 224.771 1223.44 223.938C1221.52 223.104 1220.03 221.885 1218.97 220.281C1217.91 218.677 1217.38 216.74 1217.38 214.469V214.406C1217.38 212.135 1217.91 210.229 1218.97 208.688C1220.05 207.146 1221.55 205.979 1223.47 205.188C1225.39 204.396 1227.59 204 1230.09 204C1232.74 204 1234.98 204.406 1236.81 205.219C1238.67 206.031 1240.02 207.125 1240.88 208.5L1240.97 208.688H1252.59L1252.53 208.375C1251.91 205.875 1250.56 203.656 1248.5 201.719C1246.46 199.76 1243.83 198.219 1240.62 197.094C1237.42 195.948 1233.79 195.375 1229.75 195.375C1224.83 195.375 1220.57 196.146 1216.97 197.688C1213.36 199.229 1210.57 201.427 1208.59 204.281C1206.61 207.115 1205.62 210.5 1205.62 214.438V214.5C1205.62 218.521 1206.61 221.969 1208.59 224.844C1210.59 227.719 1213.41 229.927 1217.03 231.469C1220.66 232.99 1224.93 233.75 1229.84 233.75Z" fill="#817EFF"/>
</g>
<g style="mix-blend-mode:color-dodge" filter="url(#filter1_bd_125_110)">
<path fill-rule="evenodd" clip-rule="evenodd" d="M32 266V48C32 39.1634 39.1634 32 48 32H706C714.837 32 722 39.1634 722 48V266C722 274.837 714.837 282 706 282H48C39.1634 282 32 274.837 32 266ZM191.75 181.312C191.75 210.656 178.812 226.594 155 226.594C139.438 226.594 129.5 219.188 127.156 205.875H125.094V225H90.5V81.5625H125.281V139.312H127.344C130.062 126.188 140 118.875 155 118.875C178.812 118.875 191.75 134.812 191.75 164.156V181.312ZM124.438 181.5C124.438 193.031 130.531 199.688 141.125 199.688C151.719 199.688 157.812 193.031 157.812 181.5V162.938C157.812 151.406 151.719 144.75 141.125 144.75C130.531 144.75 124.438 151.406 124.438 162.938V181.5ZM308.562 181.031C308.562 209.625 289.25 227.438 258.312 227.438C227.375 227.438 208.062 209.625 208.062 181.031V164.625C208.062 136.031 227.375 118.219 258.312 118.219C289.25 118.219 308.562 136.031 308.562 164.625V181.031ZM276.125 165.469C276.125 151.875 269.281 143.25 258.312 143.25C247.344 143.25 240.5 151.875 240.5 165.469V180.188C240.5 193.781 247.344 202.406 258.312 202.406C269.281 202.406 276.125 193.781 276.125 180.188V165.469ZM360.594 225H327.5V120.656H359.75V137.625H361.531C366.312 125.25 377.188 118.219 391.625 118.219C414.312 118.219 426.5 131.906 426.5 157.594V225H393.312V165C393.312 151.688 388.156 145.312 377.375 145.312C366.969 145.312 360.594 152.906 360.594 165.375V225ZM479.281 225H446.188V120.656H478.438V137.625H480.219C485 125.25 495.875 118.219 510.312 118.219C533 118.219 545.188 131.906 545.188 157.594V225H512V165C512 151.688 506.844 145.312 496.062 145.312C485.656 145.312 479.281 152.906 479.281 165.375V225ZM636.219 224.812C627.406 252.375 612.406 262.969 582.219 262.969C576.219 262.969 570.406 262.969 570.125 262.875V237.656C570.406 237.75 574.531 237.844 575.938 237.844C587 237.844 593 234.844 594.125 228.75L594.594 225.844L558.969 120.656H595.625L614.281 197.156H616.062L634.719 120.656H669.781L636.219 224.812Z" fill="url(#paint1_linear_125_110)" fill-opacity="0.9"/>
</g>
</g>
<defs>
<filter id="filter0_d_125_110" x="733.594" y="73.9062" width="1203.5" height="234" filterUnits="userSpaceOnUse" color-interpolation-filters="sRGB">
<feFlood flood-opacity="0" result="BackgroundImageFix"/>
<feColorMatrix in="SourceAlpha" type="matrix" values="0 0 0 0 0 0 0 0 0 0 0 0 0 0 0 0 0 0 127 0" result="hardAlpha"/>
<feOffset dy="24"/>
<feGaussianBlur stdDeviation="25"/>
<feComposite in2="hardAlpha" operator="out"/>
<feColorMatrix type="matrix" values="0 0 0 0 0 0 0 0 0 0 0 0 0 0 0 0 0 0 0.1 0"/>
<feBlend mode="normal" in2="BackgroundImageFix" result="effect1_dropShadow_125_110"/>
<feBlend mode="normal" in="SourceGraphic" in2="effect1_dropShadow_125_110" result="shape"/>
</filter>
<filter id="filter1_bd_125_110" x="-96" y="-96" width="946" height="506" filterUnits="userSpaceOnUse" color-interpolation-filters="sRGB">
<feFlood flood-opacity="0" result="BackgroundImageFix"/>
<feGaussianBlur in="BackgroundImageFix" stdDeviation="64"/>
<feComposite in2="SourceAlpha" operator="in" result="effect1_backgroundBlur_125_110"/>
<feColorMatrix in="SourceAlpha" type="matrix" values="0 0 0 0 0 0 0 0 0 0 0 0 0 0 0 0 0 0 127 0" result="hardAlpha"/>
<feOffset dy="24"/>
<feGaussianBlur stdDeviation="25"/>
<feColorMatrix type="matrix" values="0 0 0 0 0 0 0 0 0 0 0 0 0 0 0 0 0 0 0.05 0"/>
<feBlend mode="normal" in2="effect1_backgroundBlur_125_110" result="effect2_dropShadow_125_110"/>
<feBlend mode="normal" in="SourceGraphic" in2="effect2_dropShadow_125_110" result="shape"/>
</filter>
<linearGradient id="paint0_linear_125_110" x1="-373" y1="-166.74" x2="25.096" y2="1045.76" gradientUnits="userSpaceOnUse">
<stop stop-color="#0A0B0D"/>
<stop offset="0.578125" stop-color="#131416"/>
<stop offset="1" stop-color="#16171A"/>
</linearGradient>
<linearGradient id="paint1_linear_125_110" x1="722" y1="282" x2="32" y2="32" gradientUnits="userSpaceOnUse">
<stop stop-color="#2C2D31"/>
<stop offset="1" stop-color="#707682"/>
</linearGradient>
<clipPath id="clip0_125_110">
<rect width="1920" height="314" rx="32" fill="white"/>
</clipPath>
</defs>
</svg>
