<svg width="297" height="42" viewBox="0 0 297 42" fill="none" xmlns="http://www.w3.org/2000/svg">
<path d="M165.406 25.116C165.406 27.0532 166.422 28.1715 168.187 28.1715C169.953 28.1715 170.969 27.0532 170.969 25.116V21.9975C170.969 20.0602 169.953 18.942 168.187 18.942C166.422 18.942 165.406 20.0602 165.406 21.9975V25.116Z" fill="#EAF0FF"/>
<path d="M190.687 22.4227C190.687 20.139 189.547 18.69 187.719 18.69C185.891 18.69 184.75 20.139 184.75 22.4227V24.8955C184.75 27.1792 185.891 28.6282 187.719 28.6282C189.547 28.6282 190.687 27.1792 190.687 24.8955V22.4227Z" fill="#EAF0FF"/>
<path fill-rule="evenodd" clip-rule="evenodd" d="M150 39.312V2.688C150 1.20346 151.194 0 152.667 0H262.333C263.806 0 265 1.20346 265 2.688V39.312C265 40.7965 263.806 42 262.333 42H152.667C151.194 42 150 40.7965 150 39.312ZM176.625 25.0845C176.625 30.0142 174.469 32.6917 170.5 32.6917C167.906 32.6917 166.25 31.4475 165.859 29.211H165.516V32.424H159.75V8.3265H165.547V18.0285H165.891C166.344 15.8235 168 14.595 170.5 14.595C174.469 14.595 176.625 17.2725 176.625 22.2022V25.0845ZM196.094 25.0372C196.094 29.841 192.875 32.8335 187.719 32.8335C182.562 32.8335 179.344 29.841 179.344 25.0372V22.281C179.344 17.4772 182.562 14.4847 187.719 14.4847C192.875 14.4847 196.094 17.4772 196.094 22.281V25.0372ZM204.766 32.424H199.25V14.8942H204.625V17.745H204.922C205.719 15.666 207.531 14.4847 209.937 14.4847C213.719 14.4847 215.75 16.7842 215.75 21.0997V32.424H210.219V22.344C210.219 20.1075 209.359 19.0365 207.562 19.0365C205.828 19.0365 204.766 20.3122 204.766 22.407V32.424ZM224.547 32.424H219.031V14.8942H224.406V17.745H224.703C225.5 15.666 227.313 14.4847 229.719 14.4847C233.5 14.4847 235.531 16.7842 235.531 21.0997V32.424H230V22.344C230 20.1075 229.141 19.0365 227.344 19.0365C225.609 19.0365 224.547 20.3122 224.547 22.407V32.424ZM250.703 32.3925C249.234 37.023 246.734 38.8027 241.703 38.8027C240.703 38.8027 239.734 38.8027 239.688 38.787V34.5502C239.734 34.566 240.422 34.5817 240.656 34.5817C242.5 34.5817 243.5 34.0777 243.688 33.054L243.766 32.5657L237.828 14.8942H243.937L247.047 27.7462H247.344L250.453 14.8942H256.297L250.703 32.3925Z" fill="#EAF0FF"/>
<path fill-rule="evenodd" clip-rule="evenodd" d="M170.5 32.6917C174.469 32.6917 176.625 30.0142 176.625 25.0845V22.2022C176.625 17.2725 174.469 14.595 170.5 14.595C168 14.595 166.344 15.8235 165.891 18.0285H165.547V8.3265H159.75V32.424H165.516V29.211H165.859C166.25 31.4475 167.906 32.6917 170.5 32.6917ZM165.406 25.116C165.406 27.0532 166.422 28.1715 168.187 28.1715C169.953 28.1715 170.969 27.0532 170.969 25.116V21.9975C170.969 20.0602 169.953 18.942 168.187 18.942C166.422 18.942 165.406 20.0602 165.406 21.9975V25.116Z" fill="#0A0B0D"/>
<path fill-rule="evenodd" clip-rule="evenodd" d="M187.719 32.8335C192.875 32.8335 196.094 29.841 196.094 25.0372V22.281C196.094 17.4772 192.875 14.4847 187.719 14.4847C182.562 14.4847 179.344 17.4772 179.344 22.281V25.0372C179.344 29.841 182.562 32.8335 187.719 32.8335ZM190.687 22.4227C190.687 20.139 189.547 18.69 187.719 18.69C185.891 18.69 184.75 20.139 184.75 22.4227V24.8955C184.75 27.1792 185.891 28.6282 187.719 28.6282C189.547 28.6282 190.687 27.1792 190.687 24.8955V22.4227Z" fill="#0A0B0D"/>
<path d="M199.25 32.424H204.766V22.407C204.766 20.3122 205.828 19.0365 207.562 19.0365C209.359 19.0365 210.219 20.1075 210.219 22.344V32.424H215.75V21.0997C215.75 16.7842 213.719 14.4847 209.937 14.4847C207.531 14.4847 205.719 15.666 204.922 17.745H204.625V14.8942H199.25V32.424Z" fill="#0A0B0D"/>
<path d="M219.031 32.424H224.547V22.407C224.547 20.3122 225.609 19.0365 227.344 19.0365C229.141 19.0365 230 20.1075 230 22.344V32.424H235.531V21.0997C235.531 16.7842 233.5 14.4847 229.719 14.4847C227.313 14.4847 225.5 15.666 224.703 17.745H224.406V14.8942H219.031V32.424Z" fill="#0A0B0D"/>
<path d="M241.703 38.8027C246.734 38.8027 249.234 37.023 250.703 32.3925L256.297 14.8942H250.453L247.344 27.7462H247.047L243.937 14.8942H237.828L243.766 32.5657L243.688 33.054C243.5 34.0777 242.5 34.5817 240.656 34.5817C240.422 34.5817 239.734 34.566 239.688 34.5502V38.787C239.734 38.8027 240.703 38.8027 241.703 38.8027Z" fill="#0A0B0D"/>
<path d="M10.0312 21.125L11.6719 34H16.5625L19.7812 11.4531H14.6562L14.0938 18.4844L13.5781 27.1094H13.2656L11.9844 16.6094H7.79688L6.51562 27.1094H6.20312L5.6875 18.4844L5.125 11.4531H0L3.21875 34H8.10938L9.75 21.125H10.0312ZM21.3281 34H26.8438V24.1406C26.8438 22.0625 27.9688 20.7812 29.7812 20.7812C31.5938 20.7812 32.5156 21.8906 32.5156 24.0781V34H38.0312V22.8281C38.0312 18.6094 35.9375 16.2812 32.1562 16.2812C29.6875 16.2812 27.7969 17.4688 27.0312 19.5H26.7344V10.0938H21.3281V34ZM46.6562 34.2656C48.75 34.2656 50.5156 33.3594 51.3906 31.8438H51.8594V34H57.0781V22.25C57.0781 18.3594 54.4531 16.2031 49.6875 16.2031C45.1406 16.2031 42.125 18.2969 41.8125 21.6719H47.1719C47.4531 20.8125 48.3594 20.2656 49.5 20.2656C50.8125 20.2656 51.6406 20.9688 51.6406 22.0781V23.375L48.0781 23.6406C43.5469 23.9844 41.1875 25.8281 41.1875 29C41.1875 32.1406 43.3906 34.2656 46.6562 34.2656ZM48.6562 30.1875C47.3906 30.1875 46.5781 29.5625 46.5781 28.5781C46.5781 27.5 47.4219 26.8906 49.125 26.75L51.6406 26.5469V27.3438C51.6406 29.0781 50.4688 30.1875 48.6562 30.1875ZM65.1562 11.4531V16.8438H60.6875V20.9531H65.1562V28.3125C65.1562 32.5781 66.8438 34 71.875 34H76.2969V29.9531H72.3594C71.2969 29.9531 70.6719 29.375 70.6719 28.4062V20.9531H76.6094V16.8438H70.5312V11.4531H65.1562ZM109.016 13.4688C111.156 13.4688 112.5 12.3125 112.5 10.4531C112.5 8.59375 111.156 7.4375 109.016 7.4375C106.875 7.4375 105.531 8.59375 105.531 10.4531C105.531 12.3125 106.875 13.4688 109.016 13.4688ZM116.562 34V29.875H111.672V16.6094H101.484V20.7344H106.344V29.875H101.031V34H116.562ZM121 21.9062C121 24.7031 122.734 26.4688 126.094 27.1719L128.734 27.7188C130.281 28.0312 130.797 28.375 130.797 29.1094C130.797 29.9375 129.953 30.4844 128.625 30.4844C127.156 30.4844 126.266 29.9688 126.094 29.0156H120.703C120.891 32.4375 123.75 34.3906 128.578 34.3906C133.438 34.3906 136.453 32.0781 136.453 28.375C136.453 25.6562 134.875 24.1562 131.234 23.4531L128.344 22.8906C127.016 22.625 126.422 22.1719 126.422 21.4375C126.422 20.625 127.266 20.0469 128.484 20.0469C129.781 20.0469 130.672 20.625 130.781 21.5625H135.938C135.828 18.0781 133.172 16.1406 128.5 16.1406C123.844 16.1406 121 18.3281 121 21.9062ZM278.906 17.9531H284.281C284.312 16.6094 285.219 15.7031 286.516 15.7031C287.812 15.7031 288.703 16.4531 288.703 17.5469C288.703 18.8281 288.234 19.3906 286.062 20.7031C284.016 21.9219 283.406 23.2656 283.578 26.1875L283.625 26.9844H288.797V25.9375C288.797 24.5781 289.359 23.875 291.469 22.625C293.797 21.25 294.797 19.6719 294.797 17.4062C294.797 13.5156 291.703 11 286.922 11C281.938 11 278.891 13.6406 278.906 17.9531ZM286.359 34.5938C288.234 34.5938 289.688 33.2812 289.688 31.5781C289.688 29.875 288.234 28.5625 286.359 28.5625C284.484 28.5625 283.031 29.875 283.031 31.5781C283.031 33.2812 284.484 34.5938 286.359 34.5938Z" fill="#4F5052"/>
</svg>
